<svg width="242" height="297" viewBox="0 0 242 297" fill="none" xmlns="http://www.w3.org/2000/svg">
<path d="M11.8471 4.45654C7.65495 5.80705 3.71787 7.10851 1.12149 7.97179V11.2876C5.29401 9.89455 14.9144 6.70957 22.3569 4.45654H11.8471Z" fill="black"/>
<path d="M51.4108 4.45654H38.1248L1.12477 17.118V21.66L51.4108 4.45654Z" fill="black"/>
<path d="M77.8194 4.45654H64.2194L1.12477 25.4892V30.0247L77.8194 4.45654Z" fill="black"/>
<path d="M134.959 4.45654H95.4054C81.7074 6.99406 71.8091 11.0358 70.6973 11.5034L1.12477 34.4294V38.9583L72.123 15.5615L72.2898 15.4993C72.8359 15.2672 126.333 -6.90344 157.97 20.4141C159.399 19.7471 160.822 19.1061 162.244 18.4816C154.844 11.6178 145.639 6.91885 134.959 4.45654Z" fill="black"/>
<path d="M156.446 21.7156C134.011 7.90964 114.604 8.23337 80.3798 17.4842C55.6193 24.1779 17.017 37.7353 1.12149 43.4186V47.9868C15.9346 42.6763 56.0902 28.5041 81.5014 21.6338C113.318 13.0337 132.533 13.5569 151.195 23.7364C152.454 23.089 153.709 22.4546 154.968 21.8431L156.446 21.7156Z" fill="black"/>
<path d="M56.9208 32.2025L1.12477 52.1331V56.698L58.3596 36.2573C58.9613 36.0447 116.69 16.0291 141.571 29.0698C143 28.2229 144.433 27.3923 145.865 26.5944C120.411 10.1954 59.5466 31.2836 56.9208 32.2025Z" fill="black"/>
<path d="M52.6142 42.5554L1.12477 60.7301V65.2885L54.0955 46.5906C54.6089 46.3944 103.554 27.9843 130.983 35.8781C132.474 34.8415 133.975 33.8311 135.479 32.8533C107.246 21.9969 54.7986 41.7216 52.6142 42.5554Z" fill="black"/>
<path d="M48.3436 52.1397C27.6673 58.9446 10.1042 66.4492 3.9108 69.1764H14.9143C37.7586 59.7588 89.1041 40.5181 120.977 43.3924C122.559 42.1073 124.155 40.8647 125.761 39.6581C108.224 36.8034 82.1946 40.9988 48.3436 52.1397Z" fill="black"/>
<path d="M113.361 49.3929C91.3931 44.2656 44.1318 62.9504 29.3122 69.1764H40.8716C59.6545 61.8876 92.3381 50.6715 110.019 53.1436C111.069 52.1201 112.125 51.1097 113.191 50.1254L113.361 49.3929Z" fill="black"/>
<path d="M54.5631 69.1765H63.1011C64.4025 68.5454 65.8675 67.8947 67.5221 67.257C74.8829 64.4187 84.5523 61.2697 102.384 62.2441C103.613 60.4849 104.699 59.0493 105.585 57.9473C75.6481 56.2993 59.661 65.5141 54.5631 69.1765Z" fill="black"/>
<path d="M154.923 4.45654H146.238C149.651 5.90188 155.982 9.50869 163.124 18.0957C164.51 17.4973 165.89 16.9251 167.264 16.3659C162.777 10.7807 158.526 7.0006 154.923 4.45654Z" fill="black"/>
<path d="M162.885 4.45654H156.169C158.088 5.93131 164.517 11.1012 167.476 16.2809C168.827 15.7348 170.174 15.2018 171.511 14.6949C169.455 10.8461 165.841 7.12159 162.885 4.45654Z" fill="black"/>
<path d="M170.72 4.45654H164.72C167.287 6.95809 171.214 11.1699 172.646 14.2698C174 13.763 175.35 13.2692 176.691 12.8016C175.491 10.0384 173.003 6.94501 170.72 4.45654Z" fill="black"/>
<path d="M178.195 4.45654H172.352C174.418 6.62782 177.42 9.95341 178.745 12.0953C180.144 11.6211 181.534 11.1666 182.911 10.7317C181.998 8.9626 180.053 6.55915 178.195 4.45654Z" fill="black"/>
<path d="M188.908 8.93005C188.201 7.58281 187.018 5.98378 185.762 4.45996H180.046C181.675 6.23557 183.594 8.47552 184.67 10.1825C185.393 9.9601 186.112 9.74755 186.828 9.535C187.525 9.32572 188.218 9.12625 188.908 8.93005Z" fill="black"/>
<path d="M195.732 4.45654H189.65L192.995 7.80175C194.637 7.36684 196.255 6.95809 197.848 6.57223L195.732 4.45654Z" fill="black"/>
<path d="M215.012 147.336C213.724 145.786 212.36 144.236 210.912 142.689C202.583 138.281 194.997 130.852 189.765 124.93C187.462 123.416 185.17 122.023 182.911 120.744C184.846 123.239 187.819 126.853 191.547 130.695C199.712 139.128 207.593 144.707 215.012 147.336Z" fill="black"/>
<path d="M197.351 144.7C197.802 145.184 208.162 156.181 224.42 160.913C223.789 159.798 223.122 158.676 222.415 157.551C208.39 152.627 199.342 143.039 199.202 142.889L168.951 114.289C168.64 115.234 168.356 116.163 168.098 117.069L197.351 144.7Z" fill="black"/>
<path d="M200.909 157.744C201.612 158.346 217.249 171.645 230.751 174.801C230.407 173.82 230.038 172.826 229.642 171.825C217.115 168.123 202.76 155.92 202.648 155.828L167.721 122.978C167.499 124.054 167.82 125.172 167.666 126.13L200.909 157.744Z" fill="black"/>
<path d="M168.14 135.113H167.048C172.587 140.155 178.862 146.061 185.301 152.499C201.576 168.774 219.427 180.556 233.471 184.359C233.262 183.404 233.03 182.436 232.775 181.449C225.195 179.084 208.312 171.848 187.132 150.671C180.445 143.984 173.925 137.863 168.225 132.686C168.156 133.736 168.143 134.475 168.14 134.841C168.14 135.015 168.14 135.113 168.14 135.113Z" fill="black"/>
<path d="M180.125 156.816C206.978 183.666 226.781 192.737 235.133 195.621C235.064 194.689 234.972 193.724 234.861 192.727C226.212 189.483 207.109 180.141 181.953 154.985C173.545 146.577 166.201 140.103 159.877 135.113H156.594H155.619C162.313 140.181 170.488 147.176 180.125 156.816Z" fill="black"/>
<path d="M140.28 135.113C147.467 138.667 156.27 144.177 164.592 152.499C175.615 163.522 212.308 198.858 235.244 204.934C235.289 204.116 235.322 203.223 235.335 202.265C213.07 196.013 177.247 161.488 166.423 150.668C159.481 143.726 152.297 138.706 145.917 135.109H142.964H140.28V135.113Z" fill="black"/>
<path d="M178.091 170.026C174.595 166.815 170.982 163.496 167.237 160.115C148.867 143.523 133.452 137.846 125.296 135.907L124.034 138.301C126.212 138.795 129.021 139.579 132.36 140.845C139.972 143.732 151.898 149.752 165.501 162.038C169.239 165.412 172.849 168.728 176.338 171.933C197.439 191.311 214.286 206.775 234.24 213.315C234.472 211.909 234.541 211.127 234.541 211.127C234.541 211.127 234.57 210.986 234.619 210.712C215.375 204.254 198.806 189.048 178.091 170.026Z" fill="black"/>
<path d="M171.616 173.983C151.09 152.836 131.196 145.871 121.238 143.605L119.97 146.008C122.88 146.649 126.82 147.728 131.493 149.56C140.921 153.251 155.21 160.802 169.759 175.792C194.49 201.275 224.757 217.867 232.242 221.765C232.51 220.869 232.749 220.022 232.961 219.22C224.884 214.976 195.621 198.714 171.616 173.983Z" fill="black"/>
<path d="M164.644 177.371C143.066 158.062 126.32 152.751 117.105 151.42L115.797 153.896C118.037 154.17 120.839 154.7 124.152 155.694C132.644 158.238 146.26 164.396 162.918 179.297C194.676 207.713 218.047 225.44 229.384 229.773C229.721 228.952 230.038 228.154 230.332 227.369C219.512 223.282 195.87 205.306 164.644 177.371Z" fill="black"/>
<path d="M190.955 209.214C183.823 202.547 175.736 194.993 164.595 185.958C140.891 166.737 121.108 162.09 112.056 160.982L112.007 161.077C128.91 163.941 139.433 169.66 145.92 176.122C151.237 179.228 156.973 183.11 162.967 187.969C174.036 196.945 182.087 204.466 189.186 211.104C201.54 222.651 210.637 231.133 225.839 237.343C226.251 236.561 226.64 235.789 227.013 235.028C212.167 229.014 203.61 221.042 190.955 209.214Z" fill="black"/>
<path d="M203.43 229.962C172.623 201.01 158.906 190.902 153.49 187.459C154.03 188.806 154.455 190.134 154.789 191.425C161.316 195.997 175.007 206.795 201.729 231.915L201.88 232.036C201.988 232.111 212.059 239.063 221.866 244.18C222.34 243.441 222.795 242.706 223.233 241.973C213.976 237.163 204.391 230.623 203.43 229.962Z" fill="black"/>
<path d="M200.951 236.973C175.108 210.483 161.299 201.304 155.815 198.305C155.864 199.381 155.861 200.392 155.819 201.314C161.76 204.832 175.285 214.374 199.071 238.755C199.473 239.19 208.283 248.65 216.664 251.515C217.236 250.782 217.795 250.053 218.331 249.327C210.401 247.12 201.072 237.101 200.951 236.973Z" fill="black"/>
<path d="M180.259 227.497C170.936 217.592 160.74 210.362 155.063 206.69C155.024 206.82 154.991 206.928 154.959 207.007C154.821 207.367 154.53 208.115 154.063 209.126C159.684 212.792 169.435 219.776 178.372 229.272C190.229 241.872 207.311 253.951 211.919 257.126C212.511 256.475 213.089 255.828 213.652 255.177C209.558 252.365 192.197 240.184 180.259 227.497Z" fill="black"/>
<path d="M187.184 243.056C176.42 230.943 158.739 218.737 151.411 213.907C150.966 214.593 150.475 215.306 149.936 216.032C157.127 220.764 174.647 232.843 185.252 244.772C195.745 256.577 203.315 261.041 206.549 262.564C207.236 261.917 207.913 261.269 208.567 260.619C206.634 259.837 198.744 256.06 187.184 243.056Z" fill="black"/>
<path d="M194.068 258.565C167.578 230.27 153.003 222.327 146.421 220.133C145.734 220.826 144.998 221.509 144.213 222.18C148.955 223.35 163.222 229.397 192.21 260.364L200.042 268.195C200.729 267.649 201.399 267.103 202.06 266.55L194.068 258.565Z" fill="black"/>
<path d="M139.511 225.577C138.527 226.172 137.48 226.728 136.382 227.245C139.299 228.209 143.795 230.028 149.658 233.406C159.51 239.082 175.262 250.406 194.67 272.198C195.389 271.694 196.092 271.19 196.785 270.68C169.625 240.125 149.357 229.321 139.511 225.577Z" fill="black"/>
<path d="M190.128 275.213C167.529 246.956 143.54 234.377 130.862 229.302C129.387 229.717 127.831 230.054 126.189 230.302C136.895 234.043 163.17 245.766 187.904 276.576C188.656 276.125 189.398 275.67 190.128 275.213Z" fill="black"/>
<path d="M7.91329 198.351H1.53679C1.53679 199.087 1.56295 199.8 1.5793 200.523L7.97542 198.554L7.91329 198.351Z" fill="black"/>
<path d="M24.4726 198.521L24.4039 198.351H17.926L1.7755 204.81C1.8409 205.719 1.91938 206.615 2.01094 207.504L24.4726 198.521Z" fill="black"/>
<path d="M52.9118 198.351H43.1639C22.8179 204.224 9.2082 209.999 2.73033 213.014C2.87748 213.903 3.03771 214.78 3.21102 215.646C10.1303 212.383 26.9054 205.182 52.9118 198.351Z" fill="black"/>
<path d="M81.0239 206.15C80.7787 205.195 80.5956 204.296 80.4582 203.472C67.3357 201.912 50.4429 204.283 30.1885 210.535C18.3184 214.201 8.52478 218.259 4.22473 220.123C4.44055 220.976 4.66291 221.826 4.89835 222.654C14.0217 218.687 53.4709 202.465 81.0239 206.15Z" fill="black"/>
<path d="M84.2514 213.998C83.7217 213.102 83.2606 212.209 82.8584 211.327C44.7858 209.728 16.484 222.415 6.50392 227.67C6.79822 228.501 7.10233 229.312 7.41298 230.113C16.9221 225.047 45.5346 211.994 84.2514 213.998Z" fill="black"/>
<path d="M90.5952 221.5C89.4409 220.522 88.4076 219.505 87.4887 218.465C73.758 216.967 56.3878 219.001 35.7377 224.544C23.9853 227.696 14.0511 231.261 8.71443 233.295C9.06432 234.102 9.42402 234.887 9.78699 235.662C22.7656 230.744 62.5354 216.99 90.5952 221.5Z" fill="black"/>
<path d="M105.425 229.717C62.1397 218.714 22.7525 234.501 11.749 239.573C12.1643 240.348 12.5796 241.106 13.0014 241.842C23.9069 236.829 62.4307 221.46 104.784 232.228C150.744 243.912 178.588 274.425 182.898 279.418C183.676 278.999 184.444 278.574 185.209 278.139C182.087 274.441 153.494 241.94 105.425 229.717Z" fill="black"/>
<path d="M162.839 266.724C152.529 258.892 134.963 247.764 109.836 239.239C68.3461 225.162 25.774 239.625 14.3421 244.102C14.813 244.87 15.2839 245.613 15.7547 246.329C27.5202 241.777 68.8203 228.056 109.002 241.689C133.746 250.083 151.035 261.021 161.181 268.715C169.719 275.19 174.755 280.503 176.609 282.593C177.42 282.21 178.228 281.818 179.026 281.419C177.58 279.722 172.411 273.993 162.839 266.724Z" fill="black"/>
<path d="M64.1965 238.739C40.9011 239.256 23.4491 245.838 17.2426 248.529C17.7658 249.278 18.2857 249.994 18.7958 250.675C25.2181 247.944 42.0521 241.797 64.3764 241.322C90.507 240.773 129.727 248.134 168.67 286.053C169.546 285.703 170.416 285.343 171.282 284.977C131.392 245.701 91.0694 238.141 64.1965 238.739Z" fill="black"/>
<path d="M61.6459 243.7C39.8154 243.539 24.5347 249.131 19.319 251.361C19.888 252.107 20.4505 252.823 20.99 253.487C26.5981 251.208 41.4406 246.113 61.7669 246.289C85.4646 246.509 121.667 254.177 160.338 289.068C161.28 288.76 162.218 288.443 163.15 288.116C123.416 251.793 86.0499 243.899 61.6459 243.7Z" fill="black"/>
<path d="M56.2766 248.232C38.6088 247.751 26.7517 252.054 21.7225 254.363C22.3503 255.109 22.9487 255.795 23.5145 256.42C28.6909 254.177 40.0541 250.341 56.4074 250.825C92.773 251.907 126.771 273.192 149.939 292.046C150.979 291.791 152.016 291.523 153.049 291.245C129.492 271.799 94.2119 249.281 56.2766 248.232Z" fill="black"/>
<path d="M61.4399 260.641C45.2436 259.039 33.7103 260.991 29.1814 261.998C29.9662 262.741 30.7542 263.467 31.5488 264.183C44.292 261.838 87.9596 257.509 136.961 294.61C138.131 294.434 139.295 294.244 140.459 294.041C109.323 269.846 80.3372 262.512 61.4399 260.641Z" fill="black"/>
<path d="M40.8585 271.789C42.0423 272.665 43.2358 273.522 44.4359 274.349C58.6179 274.461 90.7457 277.054 118.861 296.134C120.297 296.108 121.732 296.056 123.161 295.987C91.2133 272.806 53.1472 271.531 40.8585 271.789Z" fill="black"/>
<path d="M98.1457 69.1764H1.12477V4.45654H208.224" stroke="black" stroke-width="0.6597" stroke-miterlimit="10"/>
<mask id="mask0_1748_140" style="mask-type:luminance" maskUnits="userSpaceOnUse" x="77" y="0" width="165" height="135">
<path d="M241.009 0.653564V73.5222C241.009 73.5222 204.787 66.8253 184.068 87.4165C163.349 108.008 168.14 134.841 168.14 134.841H77.9207C77.9207 134.841 76.4459 107.367 99.6204 66.6978C122.795 26.0288 197.858 1.16041 241.009 0.653564Z" fill="white"/>
</mask>
<g mask="url(#mask0_1748_140)">
<path d="M188.685 7.90967C187.94 8.12876 187.194 8.35112 186.442 8.58329C185.837 8.76968 185.226 8.96261 184.614 9.15881C183.182 9.61334 181.737 10.0842 180.282 10.578C179.572 10.82 178.859 11.0619 178.143 11.3105C176.75 11.7977 175.347 12.3111 173.938 12.8376C173.545 12.9847 173.153 13.1286 172.761 13.279C171.371 13.8087 169.971 14.3614 168.565 14.9271C168.493 14.9565 168.421 14.9859 168.346 15.0154C166.917 15.5942 165.481 16.1926 164.043 16.8139C163.739 16.9447 163.434 17.082 163.13 17.2161C161.652 17.8635 160.171 18.5306 158.686 19.2239C157.647 19.7078 156.607 20.2049 155.567 20.7117C154.262 21.3494 152.954 22.0066 151.646 22.6803C149.799 23.6318 147.948 24.6226 146.1 25.6527C144.609 26.4833 143.121 27.3433 141.637 28.2262C139.518 29.4851 137.405 30.7931 135.299 32.16C133.736 33.177 132.177 34.2266 130.627 35.3057C128.808 36.5712 126.997 37.8792 125.198 39.233C123.531 40.4887 121.87 41.7803 120.225 43.1178C117.488 45.3414 114.783 47.6696 112.128 50.1188C111.02 51.1423 109.921 52.192 108.829 53.2548C108.142 53.9218 107.455 54.5922 106.775 55.2789C106.775 55.2789 105.811 56.2664 104.221 58.248C103.302 59.3958 102.171 60.8869 100.892 62.7149C99.6237 64.5297 98.2143 66.6846 96.7199 69.1797C112.485 47.4897 172.541 16.0945 188.685 7.90967Z" fill="black"/>
</g>
<mask id="mask1_1748_140" style="mask-type:luminance" maskUnits="userSpaceOnUse" x="77" y="0" width="165" height="135">
<path d="M241.009 0.653564V73.5222C241.009 73.5222 204.787 66.8253 184.068 87.4165C163.349 108.008 168.14 134.841 168.14 134.841H77.9207C77.9207 134.841 76.4459 107.367 99.6204 66.6978C122.795 26.0288 197.858 1.16041 241.009 0.653564Z" fill="white"/>
</mask>
<g mask="url(#mask1_1748_140)">
<path d="M96.5434 71.6355C91.8019 80.144 86.5241 92.0011 82.6459 107.399C84.1174 110.712 90.0917 122.598 104.816 135.113H112.625C112.622 135.113 79.196 106.324 96.5434 71.6355Z" fill="black"/>
</g>
<mask id="mask2_1748_140" style="mask-type:luminance" maskUnits="userSpaceOnUse" x="77" y="0" width="165" height="135">
<path d="M241.009 0.653564V73.5222C241.009 73.5222 204.787 66.8253 184.068 87.4165C163.349 108.008 168.14 134.841 168.14 134.841H77.9207C77.9207 134.841 76.4459 107.367 99.6204 66.6978C122.795 26.0288 197.858 1.16041 241.009 0.653564Z" fill="white"/>
</mask>
<g mask="url(#mask2_1748_140)">
<path d="M81.0436 114.42C80.7166 115.983 80.5138 116.637 79.6505 120.95L79.1306 125.198L89.2022 135.109H97.8775C97.8743 135.113 86.4914 124.541 81.0436 114.42Z" fill="black"/>
</g>
<mask id="mask3_1748_140" style="mask-type:luminance" maskUnits="userSpaceOnUse" x="77" y="0" width="165" height="135">
<path d="M241.009 0.653564V73.5222C241.009 73.5222 204.787 66.8253 184.068 87.4165C163.349 108.008 168.14 134.841 168.14 134.841H77.9207C77.9207 134.841 76.4459 107.367 99.6204 66.6978C122.795 26.0288 197.858 1.16041 241.009 0.653564Z" fill="white"/>
</mask>
<g mask="url(#mask3_1748_140)">
<path d="M77.924 135.113H83.1298L78.3556 131.133C78.2019 132.448 78.0515 133.762 77.924 135.113Z" fill="black"/>
</g>
<mask id="mask4_1748_140" style="mask-type:luminance" maskUnits="userSpaceOnUse" x="77" y="0" width="165" height="135">
<path d="M241.009 0.653564V73.5222C241.009 73.5222 204.787 66.8253 184.068 87.4165C163.349 108.008 168.14 134.841 168.14 134.841H77.9207C77.9207 134.841 76.4459 107.367 99.6204 66.6978C122.795 26.0288 197.858 1.16041 241.009 0.653564Z" fill="white"/>
</mask>
<g mask="url(#mask4_1748_140)">
<path d="M107.851 94.7741C105.248 62.6757 179.853 30.5807 179.853 30.5807L241.012 3.25657V0.653646C241.012 0.653646 229.387 0.594787 211.991 3.63589C209.6 4.12639 208.096 4.46974 208.096 4.46974C193.397 8.2891 139.514 40.5575 139.514 40.5575C139.514 40.5575 103.08 58.7746 96.1411 84.7973C89.2022 110.823 118.694 135.109 118.694 135.109H127.366C106.151 114.45 107.851 94.7741 107.851 94.7741Z" fill="black"/>
</g>
<mask id="mask5_1748_140" style="mask-type:luminance" maskUnits="userSpaceOnUse" x="77" y="0" width="165" height="135">
<path d="M241.009 0.653564V73.5222C241.009 73.5222 204.787 66.8253 184.068 87.4165C163.349 108.008 168.14 134.841 168.14 134.841H77.9207C77.9207 134.841 76.4459 107.367 99.6204 66.6978C122.795 26.0288 197.858 1.16041 241.009 0.653564Z" fill="white"/>
</mask>
<g mask="url(#mask5_1748_140)">
<path d="M126.935 91.3045C131.271 66.1484 172.911 50.5342 172.911 50.5342L241.009 21.4737V7.59253C241.009 7.59253 230.6 12.7984 177.682 37.0879C124.767 61.3775 113.488 76.9917 112.622 97.8118C111.755 118.632 134.309 135.113 134.309 135.113H140.28H142.968C139.975 132.17 122.975 114.273 126.935 91.3045Z" fill="black"/>
</g>
<mask id="mask6_1748_140" style="mask-type:luminance" maskUnits="userSpaceOnUse" x="77" y="0" width="165" height="135">
<path d="M241.009 0.653564V73.5222C241.009 73.5222 204.787 66.8253 184.068 87.4165C163.349 108.008 168.14 134.841 168.14 134.841H77.9207C77.9207 134.841 76.4459 107.367 99.6204 66.6978C122.795 26.0288 197.858 1.16041 241.009 0.653564Z" fill="white"/>
</mask>
<g mask="url(#mask6_1748_140)">
<path d="M140.914 98.5148C144.455 87.5635 148.621 81.7626 164.236 70.4843C179.585 59.399 239.439 38.9877 241.457 38.301L241.316 26.5813C239.465 27.5034 232.369 30.4235 208.475 39.2525C168.572 54.0002 145.584 71.7825 145.584 71.7825C111.046 100.039 141.849 129.717 148.026 135.109H155.619H156.594C150.865 131.113 137.111 110.277 140.914 98.5148Z" fill="black"/>
</g>
<mask id="mask7_1748_140" style="mask-type:luminance" maskUnits="userSpaceOnUse" x="77" y="0" width="165" height="135">
<path d="M241.009 0.653564V73.5222C241.009 73.5222 204.787 66.8253 184.068 87.4165C163.349 108.008 168.14 134.841 168.14 134.841H77.9207C77.9207 134.841 76.4459 107.367 99.6204 66.6978C122.795 26.0288 197.858 1.16041 241.009 0.653564Z" fill="white"/>
</mask>
<g mask="url(#mask7_1748_140)">
<path d="M203.708 56.1716C203.708 56.1716 146.453 75.2553 145.587 101.281C145.587 101.281 143.85 115.162 162.068 135.113H167.048H168.14C168.14 135.113 168.14 135.015 168.14 134.841V132.51C168.14 132.51 152.526 118.629 159.465 99.5449C166.404 80.4612 182.018 74.3888 195.032 68.3164C207.141 62.6658 237.471 53.6831 241.627 52.4634L241.509 42.7744L203.708 56.1716Z" fill="black"/>
</g>
<mask id="mask8_1748_140" style="mask-type:luminance" maskUnits="userSpaceOnUse" x="77" y="0" width="165" height="135">
<path d="M241.009 0.653564V73.5222C241.009 73.5222 204.787 66.8253 184.068 87.4165C163.349 108.008 168.14 134.841 168.14 134.841H77.9207C77.9207 134.841 76.4459 107.367 99.6204 66.6978C122.795 26.0288 197.858 1.16041 241.009 0.653564Z" fill="white"/>
</mask>
<g mask="url(#mask8_1748_140)">
<path d="M201.105 70.0494C201.105 70.0494 154.262 84.7971 162.937 116.026C162.937 116.026 165.459 124.423 168.846 127.17C168.859 127.078 168.872 126.987 168.889 126.892C169.043 125.934 169.226 124.913 169.448 123.838C169.772 122.265 170.18 120.571 170.684 118.795C170.942 117.889 171.224 116.961 171.538 116.016C172.26 113.828 173.13 111.549 174.19 109.221C174.17 105.46 175.35 87.8905 198.502 77.8582C223.168 67.1685 240.057 63.7514 241.754 63.4244L241.669 56.3579L201.105 70.0494Z" fill="black"/>
</g>
<mask id="mask9_1748_140" style="mask-type:luminance" maskUnits="userSpaceOnUse" x="77" y="0" width="165" height="135">
<path d="M241.009 0.653564V73.5222C241.009 73.5222 204.787 66.8253 184.068 87.4165C163.349 108.008 168.14 134.841 168.14 134.841H77.9207C77.9207 134.841 76.4459 107.367 99.6204 66.6978C122.795 26.0288 197.858 1.16041 241.009 0.653564Z" fill="white"/>
</mask>
<g mask="url(#mask9_1748_140)">
<path d="M224.528 72.6523C224.528 72.6523 227.131 71.7858 241.879 73.5189L241.712 67.3484L224.528 72.6523Z" fill="black"/>
</g>
<path d="M241.009 0.653564V73.5222C241.009 73.5222 204.787 66.8253 184.068 87.4165C163.349 108.008 168.14 134.841 168.14 134.841H77.9207C77.9207 134.841 76.4459 107.367 99.6204 66.6978C122.795 26.0288 197.858 1.16041 241.009 0.653564Z" stroke="black" stroke-width="0.6597" stroke-miterlimit="10"/>
<path d="M115.519 296.347C100.5 296.347 90.5396 294.1 90.4121 294.071C68.7418 288.358 50.5835 279.774 36.4342 268.555C25.1135 259.575 16.3172 248.902 10.2938 236.823C0.0391228 216.258 1.41579 198.518 1.42887 198.341L1.43868 198.243H79.3039L79.3235 198.325L80.5629 203.446L80.4713 203.514L80.576 203.485C85.2226 220.659 91.1217 223.017 104.045 228.187L104.283 228.281C115.921 232.938 128.472 230.747 136.336 227.147C139.495 225.698 146.084 221.464 150.727 214.767C156.522 206.412 157.418 197.239 153.389 187.498C150.708 181.017 144.331 171.992 129.175 165.815C120.104 162.116 112.076 161.188 111.994 161.181L111.84 161.165L111.909 161.027C112.406 160.027 124.113 136.519 126 134.74L126.147 134.897C124.361 136.581 113.152 159.016 112.167 160.988C113.322 161.135 120.836 162.188 129.247 165.618C137.651 169.042 148.697 175.605 153.582 187.42C157.584 197.092 156.656 206.595 150.897 214.894C146.225 221.627 139.599 225.891 136.418 227.346C128.514 230.966 115.902 233.17 104.195 228.487L103.956 228.393C97.4982 225.809 92.8352 223.945 89.1172 220.528C85.2357 216.964 82.6164 211.886 80.3601 203.547L80.3471 203.501L79.1273 198.462H1.63815C1.54005 199.917 0.660423 217.023 10.4933 236.741C16.5003 248.788 25.277 259.435 36.5748 268.395C50.7012 279.594 68.8301 288.162 90.4644 293.865C90.6247 293.901 107.282 297.658 130.051 295.428C143.422 294.12 156.257 291.03 168.196 286.252C183.117 280.278 196.677 271.632 208.495 260.547C208.646 260.409 223.367 246.75 230.963 225.499C235.424 213.02 236.588 200.405 234.426 188.002C231.725 172.495 223.786 157.273 210.833 142.764C210.637 142.549 191.056 121.029 168.918 114.397L168.98 114.191C191.177 120.839 210.797 142.405 210.993 142.621C223.975 157.162 231.931 172.42 234.639 187.972C236.807 200.415 235.636 213.066 231.163 225.58C223.55 246.881 208.789 260.569 208.642 260.707C196.805 271.808 183.221 280.471 168.271 286.455C156.312 291.242 143.458 294.332 130.064 295.643C124.855 296.15 119.963 296.347 115.519 296.347Z" fill="black"/>
</svg>
